<svg width="180" height="72" viewBox="0 0 180 72" fill="none" xmlns="http://www.w3.org/2000/svg">
<rect x="1" y="1" width="178" height="70" rx="4" stroke="white" stroke-width="2"/>
<path d="M41.8485 37.6735H26.8969C25.848 37.6735 25 38.5035 25 39.5301C25 40.5568 25.848 41.3868 26.8969 41.3868H44.1247C44.1247 41.3868 45.0174 40.5131 44.0578 39.0933C43.0759 37.6735 41.8485 37.6735 41.8485 37.6735Z" fill="white"/>
<path d="M41.0902 22.0527L31.8068 37.7799C31.2935 38.6755 31.5836 39.8113 32.4986 40.3137C33.4135 40.8161 34.574 40.5322 35.0872 39.6366L44.3706 23.9094C44.8839 23.0138 44.5938 21.878 43.6788 21.3756C42.7639 20.8514 41.6035 21.1572 41.0902 22.0527Z" fill="white"/>
<path d="M52.4496 44.5335L42.9207 28.3477C42.9207 28.3477 41.5371 29.3961 41.5371 31.4712C41.5371 33.5464 42.4074 34.9443 42.4074 34.9443L49.1692 46.4121C49.6824 47.3076 50.8428 47.6134 51.7578 47.0892C52.6504 46.565 52.9629 45.4291 52.4496 44.5335Z" fill="white"/>
<path d="M53.4084 37.6736H48.1195C47.0707 37.6736 46.2227 38.5036 46.2227 39.5303C46.2227 40.5569 47.0707 41.3869 48.1195 41.3869H53.4084C54.4572 41.3869 55.3052 40.5569 55.3052 39.5303C55.3052 38.5255 54.4572 37.6736 53.4084 37.6736Z" fill="white"/>
<path d="M41.2021 25.4638L39.1937 22.0344C38.6804 21.1606 37.4977 20.8548 36.605 21.3572C35.7124 21.8596 35.4 23.0173 35.9132 23.891L37.9217 27.3204C38.4349 28.1942 39.6177 28.5 40.5103 27.9976C41.403 27.4952 41.7154 26.3593 41.2021 25.4638Z" fill="white"/>
<path d="M27.8341 44.5098L29.0392 42.4783C29.0392 42.4783 29.3293 41.9104 30.4674 41.9104C31.6725 41.9104 32.8329 42.8933 32.9222 43.2647L31.1146 46.3664C30.6013 47.262 29.4409 47.5678 28.5259 47.0436C27.611 46.5412 27.3209 45.4053 27.8341 44.5098Z" fill="white"/>
<path d="M76.3711 48.2066H73.7481L72.3113 43.7874H67.3171L65.9484 48.2066H63.3947L68.3427 33.1615H71.3988L76.3711 48.2066ZM71.8781 41.9333L70.5788 38.0047C70.4413 37.6034 70.1838 36.6582 69.8038 35.1705H69.7576C69.6063 35.8103 69.3626 36.7555 69.0276 38.0047L67.7513 41.9333H71.8781Z" fill="white"/>
<path d="M89.0954 42.6485C89.0954 44.4935 88.5861 45.9519 87.5673 47.0225C86.6549 47.9755 85.5219 48.4515 84.1694 48.4515C82.7094 48.4515 81.6607 47.9382 81.022 46.9117H80.9758V52.6265H78.5134V40.9289C78.5134 39.769 78.4822 38.5786 78.4221 37.3576H80.5877L80.7252 39.0771H80.7714C81.5926 37.7816 82.8388 37.1349 84.5112 37.1349C85.8187 37.1349 86.9102 37.6402 87.7833 38.6521C88.6588 39.665 89.0954 40.9968 89.0954 42.6485ZM86.5868 42.7367C86.5868 41.6808 86.3442 40.8102 85.8568 40.1251C85.3244 39.4106 84.6094 39.0534 83.7131 39.0534C83.1056 39.0534 82.5535 39.2524 82.0603 39.6447C81.566 40.0404 81.2426 40.557 81.0913 41.1969C81.0151 41.4953 80.977 41.7395 80.977 41.9317V43.7406C80.977 44.5297 81.2241 45.1956 81.7185 45.7394C82.2128 46.2831 82.855 46.5545 83.645 46.5545C84.5725 46.5545 85.2943 46.204 85.8106 45.5053C86.328 44.8055 86.5868 43.883 86.5868 42.7367Z" fill="white"/>
<path d="M101.844 42.6486C101.844 44.4936 101.335 45.952 100.315 47.0226C99.4037 47.9757 98.2706 48.4516 96.9181 48.4516C95.4582 48.4516 94.4095 47.9384 93.7719 46.9118H93.7257V52.6267H91.2633V40.9291C91.2633 39.7691 91.2321 38.5787 91.1721 37.3577H93.3377L93.4751 39.0773H93.5213C94.3414 37.7817 95.5876 37.135 97.2612 37.135C98.5675 37.135 99.6589 37.6404 100.534 38.6522C101.406 39.6651 101.844 40.9969 101.844 42.6486ZM99.3355 42.7368C99.3355 41.6809 99.0918 40.8104 98.6044 40.1253C98.072 39.4108 97.3594 39.0535 96.4619 39.0535C95.8532 39.0535 95.3023 39.2525 94.808 39.6448C94.3136 40.0405 93.9914 40.5571 93.8401 41.197C93.765 41.4955 93.7257 41.7397 93.7257 41.9319V43.7407C93.7257 44.5298 93.9729 45.1957 94.4649 45.7395C94.9593 46.2821 95.6015 46.5546 96.3938 46.5546C97.3212 46.5546 98.0431 46.2041 98.5594 45.5055C99.0768 44.8057 99.3355 43.8831 99.3355 42.7368Z" fill="white"/>
<path d="M116.096 43.9864C116.096 45.2661 115.642 46.3073 114.731 47.1111C113.73 47.9896 112.336 48.4282 110.544 48.4282C108.89 48.4282 107.564 48.1162 106.561 47.491L107.131 45.482C108.212 46.1219 109.398 46.443 110.691 46.443C111.618 46.443 112.34 46.2372 112.859 45.828C113.375 45.4187 113.633 44.8693 113.633 44.1842C113.633 43.5737 113.42 43.0593 112.994 42.6422C112.57 42.225 111.862 41.8372 110.873 41.4788C108.182 40.4964 106.838 39.0572 106.838 37.1647C106.838 35.9279 107.309 34.9138 108.253 34.1247C109.193 33.3345 110.447 32.9399 112.016 32.9399C113.414 32.9399 114.576 33.1785 115.504 33.6544L114.888 35.6193C114.022 35.158 113.042 34.9274 111.946 34.9274C111.08 34.9274 110.403 35.1366 109.918 35.5526C109.508 35.9245 109.303 36.3779 109.303 36.9149C109.303 37.5095 109.537 38.0013 110.008 38.388C110.418 38.7452 111.163 39.1319 112.244 39.549C113.567 40.0702 114.538 40.6796 115.163 41.3782C115.786 42.0746 116.096 42.9463 116.096 43.9864Z" fill="white"/>
<path d="M124.238 39.1672H121.524V44.4344C121.524 45.774 122.002 46.4433 122.961 46.4433C123.401 46.4433 123.766 46.406 124.055 46.3314L124.123 48.1617C123.638 48.3392 122.999 48.4285 122.208 48.4285C121.235 48.4285 120.475 48.138 119.927 47.558C119.38 46.9769 119.105 46.0024 119.105 44.6333V39.165H117.488V37.3561H119.105V35.3698L121.524 34.6553V37.3561H124.238V39.1672Z" fill="white"/>
<path d="M136.485 42.6916C136.485 44.3591 135.997 45.7282 135.025 46.7988C134.005 47.9011 132.651 48.4505 130.964 48.4505C129.338 48.4505 128.043 47.9225 127.077 46.8666C126.112 45.8107 125.629 44.4778 125.629 42.8713C125.629 41.1902 126.126 39.8132 127.122 38.7426C128.117 37.6709 129.459 37.135 131.146 37.135C132.773 37.135 134.081 37.663 135.069 38.72C136.014 39.7454 136.485 41.0693 136.485 42.6916ZM133.93 42.7696C133.93 41.7691 133.712 40.911 133.269 40.1954C132.753 39.3294 132.015 38.8975 131.059 38.8975C130.069 38.8975 129.317 39.3305 128.801 40.1954C128.358 40.9121 128.14 41.7838 128.14 42.8148C128.14 43.8153 128.358 44.6734 128.801 45.3879C129.333 46.2539 130.077 46.6857 131.037 46.6857C131.977 46.6857 132.715 46.2448 133.247 45.3653C133.701 44.6361 133.93 43.769 133.93 42.7696Z" fill="white"/>
<path d="M144.489 39.4775C144.245 39.4334 143.985 39.4108 143.712 39.4108C142.846 39.4108 142.176 39.7307 141.705 40.3717C141.295 40.937 141.089 41.6515 141.089 42.5141V48.2063H138.628L138.651 40.7742C138.651 39.5238 138.62 38.3854 138.559 37.3589H140.704L140.794 39.4345H140.862C141.122 38.7211 141.532 38.1468 142.093 37.7161C142.642 37.3283 143.234 37.135 143.873 37.135C144.1 37.135 144.306 37.1508 144.489 37.1791V39.4775Z" fill="white"/>
<path d="M155.5 42.2661C155.5 42.698 155.471 43.062 155.41 43.3594H148.023C148.052 44.4311 148.409 45.2508 149.095 45.816C149.717 46.3214 150.522 46.5746 151.511 46.5746C152.605 46.5746 153.603 46.4039 154.5 46.0613L154.886 47.7345C153.837 48.1822 152.599 48.4049 151.17 48.4049C149.452 48.4049 148.103 47.9098 147.121 46.9205C146.141 45.9313 145.651 44.603 145.651 42.9366C145.651 41.3007 146.107 39.9384 147.02 38.8519C147.977 37.692 149.269 37.1121 150.895 37.1121C152.493 37.1121 153.702 37.692 154.523 38.8519C155.173 39.7733 155.5 40.9129 155.5 42.2661ZM153.152 41.641C153.168 40.9265 153.008 40.3092 152.674 39.788C152.248 39.1176 151.593 38.783 150.712 38.783C149.907 38.783 149.252 39.1097 148.752 39.7654C148.342 40.2866 148.098 40.9118 148.023 41.6398H153.152V41.641Z" fill="white"/>
<path d="M71.0644 23.9045C71.0644 25.2351 70.6567 26.2368 69.8424 26.9094C69.0882 27.5301 68.0164 27.841 66.6281 27.841C65.9397 27.841 65.3507 27.8116 64.8575 27.7528V20.4824C65.5008 20.3806 66.1938 20.3286 66.9422 20.3286C68.2647 20.3286 69.2615 20.6101 69.9337 21.1731C70.6867 21.8096 71.0644 22.7197 71.0644 23.9045ZM69.7881 23.9373C69.7881 23.0747 69.5548 22.4133 69.0882 21.9521C68.6216 21.4919 67.9402 21.2613 67.0427 21.2613C66.6616 21.2613 66.337 21.2862 66.0679 21.3382V26.8653C66.2169 26.888 66.4895 26.8981 66.8857 26.8981C67.812 26.8981 68.5269 26.646 69.0305 26.1418C69.5341 25.6376 69.7881 24.9027 69.7881 23.9373Z" fill="white"/>
<path d="M77.8306 25.0636C77.8306 25.8832 77.5916 26.5547 77.1134 27.0816C76.6121 27.6231 75.948 27.8933 75.1187 27.8933C74.3195 27.8933 73.6831 27.6344 73.2084 27.1144C72.7348 26.5954 72.498 25.9409 72.498 25.1518C72.498 24.3265 72.7417 23.6493 73.2315 23.1236C73.7212 22.5979 74.3795 22.3345 75.2088 22.3345C76.0081 22.3345 76.6502 22.5934 77.1365 23.1123C77.5985 23.6165 77.8306 24.2677 77.8306 25.0636ZM76.5752 25.102C76.5752 24.6102 76.4666 24.1885 76.2506 23.8369C75.9965 23.4119 75.635 23.1993 75.1649 23.1993C74.6787 23.1993 74.3091 23.4119 74.055 23.8369C73.8378 24.1885 73.7304 24.617 73.7304 25.1235C73.7304 25.6153 73.839 26.037 74.055 26.3886C74.3172 26.8136 74.6821 27.0262 75.1534 27.0262C75.6154 27.0262 75.978 26.8102 76.2391 26.3772C76.4631 26.0189 76.5752 25.5938 76.5752 25.102Z" fill="white"/>
<path d="M86.9062 22.4451L85.2026 27.7744H84.0938L83.3881 25.4602C83.209 24.8825 83.0635 24.3082 82.9503 23.7384H82.9284C82.8233 24.324 82.6777 24.8972 82.4906 25.4602L81.741 27.7744H80.6195L79.0176 22.4451H80.2615L80.8771 24.9786C81.0261 25.5778 81.1485 26.1487 81.2467 26.6891H81.2687C81.3587 26.2437 81.5077 25.6761 81.7179 24.9899L82.4906 22.4462H83.477L84.2174 24.9356C84.3964 25.5427 84.5419 26.1272 84.6539 26.6902H84.6874C84.7694 26.1419 84.893 25.5574 85.057 24.9356L85.7177 22.4462H86.9062V22.4451Z" fill="white"/>
<path d="M93.1806 27.7757H91.9702V24.7233C91.9702 23.7827 91.6052 23.3124 90.873 23.3124C90.5137 23.3124 90.2239 23.4413 89.9986 23.7002C89.7757 23.959 89.6625 24.2643 89.6625 24.6136V27.7746H88.4521V23.9692C88.4521 23.5012 88.4371 22.9936 88.4082 22.4441H89.4719L89.5285 23.2773H89.562C89.703 23.0184 89.9132 22.8048 90.1892 22.6341C90.5172 22.4351 90.8845 22.3345 91.2864 22.3345C91.7946 22.3345 92.2174 22.495 92.5535 22.8172C92.9716 23.2118 93.1806 23.8008 93.1806 24.5831V27.7757Z" fill="white"/>
<path d="M96.5179 27.7747H95.3086V20H96.5179V27.7747Z" fill="white"/>
<path d="M103.645 25.0636C103.645 25.8832 103.406 26.5547 102.928 27.0816C102.427 27.6231 101.761 27.8933 100.933 27.8933C100.133 27.8933 99.4964 27.6344 99.0228 27.1144C98.5493 26.5954 98.3125 25.9409 98.3125 25.1518C98.3125 24.3265 98.5562 23.6493 99.0459 23.1236C99.5356 22.5979 100.194 22.3345 101.022 22.3345C101.823 22.3345 102.464 22.5934 102.951 23.1123C103.413 23.6165 103.645 24.2677 103.645 25.0636ZM102.388 25.102C102.388 24.6102 102.28 24.1885 102.064 23.8369C101.811 23.4119 101.448 23.1993 100.979 23.1993C100.492 23.1993 100.122 23.4119 99.8694 23.8369C99.6523 24.1885 99.5449 24.617 99.5449 25.1235C99.5449 25.6153 99.6534 26.037 99.8694 26.3886C100.132 26.8136 100.497 27.0262 100.968 27.0262C101.43 27.0262 101.791 26.8102 102.052 26.3772C102.278 26.0189 102.388 25.5938 102.388 25.102Z" fill="white"/>
<path d="M109.503 27.7723H108.416L108.326 27.1584H108.293C107.921 27.648 107.391 27.8933 106.702 27.8933C106.188 27.8933 105.772 27.7316 105.459 27.4106C105.175 27.1189 105.033 26.756 105.033 26.3252C105.033 25.6741 105.31 25.1778 105.868 24.8341C106.425 24.4904 107.208 24.3219 108.216 24.3299V24.2304C108.216 23.5283 107.84 23.1778 107.086 23.1778C106.549 23.1778 106.075 23.3101 105.666 23.5724L105.42 22.7946C105.926 22.4882 106.551 22.3345 107.288 22.3345C108.711 22.3345 109.424 23.0693 109.424 24.539V26.5016C109.424 27.0341 109.451 27.458 109.503 27.7723ZM108.246 25.9409V25.119C106.911 25.0964 106.244 25.4547 106.244 26.193C106.244 26.4711 106.32 26.6791 106.476 26.8182C106.632 26.9572 106.83 27.0262 107.067 27.0262C107.333 27.0262 107.581 26.9436 107.807 26.7797C108.035 26.6147 108.175 26.4055 108.227 26.1489C108.239 26.0912 108.246 26.0211 108.246 25.9409Z" fill="white"/>
<path d="M116.379 27.7747H115.305L115.248 26.9188H115.215C114.872 27.57 114.287 27.8956 113.466 27.8956C112.81 27.8956 112.264 27.6435 111.831 27.1393C111.397 26.6351 111.181 25.9805 111.181 25.1767C111.181 24.3141 111.416 23.6154 111.887 23.0818C112.343 22.5844 112.902 22.3357 113.568 22.3357C114.299 22.3357 114.81 22.5765 115.101 23.0592H115.125V20H116.336V26.3389C116.336 26.8578 116.35 27.336 116.379 27.7747ZM115.125 25.5272V24.6386C115.125 24.4848 115.113 24.3605 115.091 24.2655C115.023 23.9806 114.876 23.7409 114.653 23.5476C114.428 23.3543 114.157 23.2571 113.844 23.2571C113.392 23.2571 113.039 23.4323 112.779 23.7839C112.521 24.1355 112.391 24.5843 112.391 25.1326C112.391 25.6594 112.514 26.0868 112.763 26.4158C113.025 26.7662 113.378 26.9415 113.821 26.9415C114.218 26.9415 114.536 26.7956 114.777 26.5028C115.01 26.2326 115.125 25.907 115.125 25.5272Z" fill="white"/>
<path d="M126.733 25.0636C126.733 25.8832 126.494 26.5547 126.016 27.0816C125.514 27.6231 124.852 27.8933 124.021 27.8933C123.223 27.8933 122.587 27.6344 122.111 27.1144C121.637 26.5954 121.4 25.9409 121.4 25.1518C121.4 24.3265 121.644 23.6493 122.134 23.1236C122.624 22.5979 123.282 22.3345 124.112 22.3345C124.91 22.3345 125.554 22.5934 126.039 23.1123C126.501 23.6165 126.733 24.2677 126.733 25.0636ZM125.479 25.102C125.479 24.6102 125.37 24.1885 125.154 23.8369C124.899 23.4119 124.539 23.1993 124.067 23.1993C123.582 23.1993 123.213 23.4119 122.957 23.8369C122.74 24.1885 122.633 24.617 122.633 25.1235C122.633 25.6153 122.741 26.037 122.957 26.3886C123.22 26.8136 123.584 27.0262 124.056 27.0262C124.518 27.0262 124.882 26.8102 125.143 26.3772C125.365 26.0189 125.479 25.5938 125.479 25.102Z" fill="white"/>
<path d="M133.24 27.7757H132.031V24.7233C132.031 23.7827 131.666 23.3124 130.932 23.3124C130.573 23.3124 130.283 23.4413 130.059 23.7002C129.835 23.959 129.723 24.2643 129.723 24.6136V27.7746H128.511V23.9692C128.511 23.5012 128.498 22.9936 128.469 22.4441H129.531L129.588 23.2773H129.621C129.763 23.0184 129.974 22.8048 130.249 22.6341C130.578 22.4351 130.944 22.3345 131.347 22.3345C131.854 22.3345 132.277 22.495 132.613 22.8172C133.032 23.2118 133.24 23.8008 133.24 24.5831V27.7757Z" fill="white"/>
<path d="M141.388 23.3302H140.055V25.9191C140.055 26.5771 140.292 26.9061 140.761 26.9061C140.978 26.9061 141.158 26.888 141.3 26.8507L141.332 27.7494C141.093 27.8376 140.778 27.8817 140.391 27.8817C139.913 27.8817 139.541 27.7393 139.272 27.4544C139.002 27.1695 138.868 26.6901 138.868 26.0175V23.3302H138.072V22.4427H138.868V21.4659L140.054 21.1155V22.4416H141.387V23.3302H141.388Z" fill="white"/>
<path d="M147.795 27.7747H146.583V24.7448C146.583 23.7895 146.218 23.3113 145.487 23.3113C144.926 23.3113 144.542 23.5883 144.332 24.1423C144.296 24.2587 144.276 24.4012 144.276 24.5685V27.7735H143.066V20H144.276V23.2118H144.299C144.68 22.6274 145.226 22.3357 145.934 22.3357C146.436 22.3357 146.85 22.4962 147.179 22.8184C147.589 23.2198 147.795 23.8167 147.795 24.6058V27.7747Z" fill="white"/>
<path d="M154.405 24.8579C154.405 25.0705 154.389 25.2491 154.36 25.3949H150.73C150.746 25.9217 150.919 26.3231 151.255 26.6012C151.563 26.8499 151.959 26.9743 152.444 26.9743C152.981 26.9743 153.471 26.8906 153.912 26.7222L154.101 27.5452C153.585 27.7645 152.978 27.8742 152.274 27.8742C151.431 27.8742 150.767 27.6311 150.286 27.145C149.804 26.6589 149.565 26.0065 149.565 25.188C149.565 24.3842 149.787 23.715 150.237 23.1813C150.706 22.6116 151.34 22.3267 152.14 22.3267C152.923 22.3267 153.518 22.6116 153.92 23.1813C154.245 23.6336 154.405 24.1932 154.405 24.8579ZM153.25 24.5515C153.259 24.1999 153.18 23.897 153.016 23.6415C152.805 23.3125 152.486 23.1474 152.052 23.1474C151.657 23.1474 151.335 23.308 151.089 23.6302C150.888 23.8868 150.769 24.1932 150.73 24.5515H153.25Z" fill="white"/>
</svg>
