<svg width="36" height="36" viewBox="0 0 36 36" fill="none" xmlns="http://www.w3.org/2000/svg">
<path d="M34.875 15.75H27V11.8125L27.45 12.15C27.5682 12.2386 27.7027 12.3031 27.8458 12.3398C27.9889 12.3765 28.1379 12.3846 28.2841 12.3637C28.4304 12.3428 28.5711 12.2933 28.6982 12.218C28.8253 12.1428 28.9364 12.0432 29.025 11.925C29.1136 11.8068 29.1781 11.6723 29.2148 11.5292C29.2515 11.3861 29.2596 11.2372 29.2387 11.0909C29.2178 10.9446 29.1683 10.8039 29.093 10.6768C29.0178 10.5497 28.9182 10.4386 28.8 10.35L24.75 7.3125V2.25C24.75 1.95163 24.6315 1.66548 24.4205 1.4545C24.2095 1.24353 23.9234 1.125 23.625 1.125H19.125C18.8266 1.125 18.5405 1.24353 18.3295 1.4545C18.1185 1.66548 18 1.95163 18 2.25L15.3 0.225C15.1053 0.0789501 14.8684 0 14.625 0C14.3816 0 14.1447 0.0789501 13.95 0.225L0.450005 10.35C0.21131 10.529 0.0535071 10.7955 0.0113114 11.0909C-0.0308843 11.3863 0.0459835 11.6863 0.225005 11.925C0.404026 12.1637 0.670536 12.3215 0.965905 12.3637C1.26128 12.4059 1.56131 12.329 1.8 12.15L2.25 11.8125V27H1.125C0.826636 27 0.540488 27.1185 0.329509 27.3295C0.118531 27.5405 4.57759e-06 27.8266 4.57759e-06 28.125C4.57759e-06 28.4234 0.118531 28.7095 0.329509 28.9205C0.540488 29.1315 0.826636 29.25 1.125 29.25H18C18.2984 29.25 18.5845 29.1315 18.7955 28.9205C19.0065 28.7095 19.125 28.4234 19.125 28.125C19.125 27.8266 19.0065 27.5405 18.7955 27.3295C18.5845 27.1185 18.2984 27 18 27H16.875V15.75C16.875 15.4516 16.7565 15.1655 16.5455 14.9545C16.3345 14.7435 16.0484 14.625 15.75 14.625H9C8.70164 14.625 8.41549 14.7435 8.20451 14.9545C7.99353 15.1655 7.875 15.4516 7.875 15.75V27H4.5V10.125L14.625 2.53125L18.45 5.4C18.6171 5.52536 18.8159 5.60169 19.024 5.62045C19.2321 5.63922 19.4413 5.59967 19.6281 5.50623C19.815 5.4128 19.9721 5.26917 20.082 5.09145C20.1918 4.91372 20.25 4.70893 20.25 4.5V3.375H22.5V7.875C22.5 8.04965 22.5407 8.2219 22.6188 8.37812C22.6969 8.53433 22.8103 8.67021 22.95 8.775L24.75 10.125V15.75H22.5C22.2016 15.75 21.9155 15.8685 21.7045 16.0795C21.4935 16.2905 21.375 16.5766 21.375 16.875V34.875C21.375 35.1734 21.4935 35.4595 21.7045 35.6705C21.9155 35.8815 22.2016 36 22.5 36H34.875C35.1734 36 35.4595 35.8815 35.6705 35.6705C35.8815 35.4595 36 35.1734 36 34.875V16.875C36 16.5766 35.8815 16.2905 35.6705 16.0795C35.4595 15.8685 35.1734 15.75 34.875 15.75ZM10.125 16.875H14.625V27H10.125V16.875ZM33.75 31.707C33.279 31.8742 32.8512 32.1443 32.4977 32.4977C32.1443 32.8511 31.8742 33.279 31.707 33.75H25.668C25.5008 33.279 25.2307 32.8511 24.8773 32.4977C24.5239 32.1443 24.096 31.8742 23.625 31.707V20.043C24.096 19.8758 24.5239 19.6057 24.8773 19.2523C25.2307 18.8989 25.5008 18.471 25.668 18H31.707C31.8742 18.471 32.1443 18.8989 32.4977 19.2523C32.8512 19.6057 33.279 19.8758 33.75 20.043V31.707ZM28.6875 29.8125C27.9087 29.8125 27.1475 29.5816 26.4999 29.1489C25.8524 28.7163 25.3477 28.1013 25.0497 27.3818C24.7517 26.6623 24.6737 25.8706 24.8257 25.1068C24.9776 24.343 25.3526 23.6414 25.9033 23.0908C26.4539 22.5401 27.1555 22.1651 27.9193 22.0132C28.6831 21.8612 29.4748 21.9392 30.1943 22.2372C30.9138 22.5352 31.5288 23.0399 31.9614 23.6874C32.3941 24.335 32.625 25.0962 32.625 25.875C32.625 26.9193 32.2102 27.9208 31.4717 28.6592C30.7333 29.3977 29.7318 29.8125 28.6875 29.8125ZM28.6875 24.1875C28.3537 24.1875 28.0275 24.2865 27.75 24.4719C27.4725 24.6573 27.2562 24.9209 27.1285 25.2292C27.0007 25.5376 26.9673 25.8769 27.0324 26.2042C27.0975 26.5316 27.2583 26.8322 27.4943 27.0682C27.7303 27.3042 28.0309 27.465 28.3583 27.5301C28.6856 27.5952 29.0249 27.5618 29.3333 27.434C29.6416 27.3063 29.9052 27.09 30.0906 26.8125C30.276 26.535 30.375 26.2088 30.375 25.875C30.375 25.4274 30.1972 24.9982 29.8807 24.6818C29.5643 24.3653 29.1351 24.1875 28.6875 24.1875Z" fill="#F79901"/>
</svg>
