<svg width="41" height="38" viewBox="0 0 41 38" fill="none" xmlns="http://www.w3.org/2000/svg">
<g clip-path="url(#clip0_1_552)">
<path d="M20.3634 18.05C24.0534 18.05 26.9234 15.0643 26.9234 11.4C26.9234 7.73574 23.9167 4.88574 20.2267 4.88574C16.5367 4.88574 13.6667 7.87146 13.6667 11.4C13.6667 15.0643 16.6734 18.05 20.3634 18.05ZM20.2267 7.60003C20.3634 7.60003 20.3634 7.60003 20.2267 7.60003C22.4134 7.60003 24.19 9.36431 24.19 11.5357C24.19 13.7072 22.4134 15.3357 20.2267 15.3357C18.04 15.3357 16.4 13.5715 16.4 11.5357C16.4 9.36431 18.1767 7.60003 20.2267 7.60003Z" fill="#F79901"/>
<path d="M40.59 17.2356C37.9933 14.9284 34.5767 13.707 31.0233 13.8427H29.93C29.6567 14.9284 29.2467 15.8784 28.7 16.6927C29.52 16.557 30.2033 16.557 31.0233 16.557C33.62 16.4213 36.2167 17.2356 38.2667 18.7284V28.4999H41V17.6427L40.59 17.2356Z" fill="#F79901"/>
<path d="M27.88 5.15723C28.5633 3.52866 30.4767 2.71437 32.2533 3.39294C33.8933 4.07151 34.7133 5.97151 34.03 7.7358C33.4833 8.95723 32.2533 9.77151 31.0233 9.77151C30.75 9.77151 30.34 9.77151 30.0667 9.6358C30.2033 10.3144 30.2033 10.9929 30.2033 11.5358V12.3501C30.4767 12.3501 30.75 12.4858 31.0233 12.4858C34.44 12.4858 37.1733 9.77151 37.1733 6.51437C37.1733 3.12151 34.44 0.407227 31.16 0.407227C28.9733 0.407227 27.06 1.49294 25.9667 3.39294C26.65 3.80008 27.3333 4.34294 27.88 5.15723Z" fill="#F79901"/>
<path d="M12.3 16.8285C11.7533 16.0142 11.3433 15.0642 11.07 13.9785H9.97667C6.42333 13.8428 3.00667 15.0642 0.41 17.2356L0 17.6428V28.4999H2.73333V18.7285C4.92 17.2356 7.38 16.4214 9.97667 16.5571C10.7967 16.5571 11.6167 16.6928 12.3 16.8285Z" fill="#F79901"/>
<path d="M9.97667 12.3499C10.25 12.3499 10.5233 12.3499 10.7967 12.2142V11.3999C10.7967 10.7214 10.7967 10.0428 10.9333 9.49994C10.66 9.63565 10.25 9.63565 9.97667 9.63565C8.20001 9.63565 6.69667 8.14279 6.69667 6.37851C6.69667 4.61422 8.20001 3.12137 9.97667 3.12137C11.3433 3.12137 12.5733 3.93565 13.12 5.15708C13.6667 4.47851 14.4867 3.79994 15.17 3.25708C13.3933 0.407081 9.70334 -0.542919 6.83334 1.22137C3.96334 2.98565 3.00667 6.64994 4.78334 9.49994C5.87667 11.2642 7.79001 12.3499 9.97667 12.3499Z" fill="#F79901"/>
<path d="M31.57 25.3786L31.2967 24.9714C28.5633 21.9857 24.7367 20.2214 20.6367 20.3572C16.5367 20.2214 12.5733 21.9857 9.83998 24.9714L9.56665 25.3786V35.6929C9.56665 36.9143 10.5233 38 11.89 38H29.3833C30.6133 38 31.7067 36.9143 31.7067 35.6929V25.3786H31.57ZM28.8367 35.2857H12.3V26.3286C14.4867 24.1572 17.4933 23.0714 20.6367 23.0714C23.6433 22.9357 26.65 24.1572 28.8367 26.3286V35.2857Z" fill="#F79901"/>
</g>
<defs>
<clipPath id="clip0_1_552">
<rect width="41" height="38" fill="white"/>
</clipPath>
</defs>
</svg>
