<svg width="39" height="40" viewBox="0 0 39 40" fill="none" xmlns="http://www.w3.org/2000/svg">
<g clip-path="url(#clip0_1_530)">
<path d="M12.9907 7.70605H5.9967C5.34943 7.70605 4.82483 8.23065 4.82483 8.87793C4.82483 9.52521 5.34943 10.0498 5.9967 10.0498H12.9907C13.6377 10.0498 14.1626 9.52521 14.1626 8.87793C14.1626 8.23065 13.6377 7.70605 12.9907 7.70605Z" fill="#F79901"/>
<path d="M12.9907 12.3938H5.9967C5.34943 12.3938 4.82483 12.9184 4.82483 13.5657C4.82483 14.213 5.34943 14.7376 5.9967 14.7376H12.9907C13.6377 14.7376 14.1626 14.213 14.1626 13.5657C14.1626 12.9184 13.6377 12.3938 12.9907 12.3938Z" fill="#F79901"/>
<path d="M12.9907 17.0815H5.9967C5.34943 17.0815 4.82483 17.6061 4.82483 18.2534C4.82483 18.9007 5.34943 19.4253 5.9967 19.4253H12.9907C13.6377 19.4253 14.1626 18.9007 14.1626 18.2534C14.1626 17.6061 13.6377 17.0815 12.9907 17.0815Z" fill="#F79901"/>
<path d="M12.9907 21.7695H5.9967C5.34943 21.7695 4.82483 22.2941 4.82483 22.9414C4.82483 23.5887 5.34943 24.1133 5.9967 24.1133H12.9907C13.6377 24.1133 14.1626 23.5887 14.1626 22.9414C14.1626 22.2941 13.6377 21.7695 12.9907 21.7695Z" fill="#F79901"/>
<path d="M12.9907 26.5356H5.9967C5.34943 26.5356 4.82483 27.0605 4.82483 27.7075C4.82483 28.3548 5.34943 28.8794 5.9967 28.8794H12.9907C13.6377 28.8794 14.1626 28.3548 14.1626 27.7075C14.1626 27.0605 13.6377 26.5356 12.9907 26.5356Z" fill="#F79901"/>
<path d="M16.9263 10.0498H23.9203C24.5676 10.0498 25.0922 9.52521 25.0922 8.87793C25.0922 8.23065 24.5676 7.70605 23.9203 7.70605H16.9263C16.2793 7.70605 15.7544 8.23065 15.7544 8.87793C15.7544 9.52521 16.2793 10.0498 16.9263 10.0498Z" fill="#F79901"/>
<path d="M16.9263 14.7376H23.9203C24.5676 14.7376 25.0922 14.213 25.0922 13.5657C25.0922 12.9184 24.5676 12.3938 23.9203 12.3938H16.9263C16.2793 12.3938 15.7544 12.9184 15.7544 13.5657C15.7544 14.213 16.2793 14.7376 16.9263 14.7376Z" fill="#F79901"/>
<path d="M21.4667 18.2534C21.4667 17.6061 20.9421 17.0815 20.2948 17.0815H16.9263C16.2793 17.0815 15.7544 17.6061 15.7544 18.2534C15.7544 18.9007 16.2793 19.4253 16.9263 19.4253H20.2948C20.9421 19.4253 21.4667 18.9007 21.4667 18.2534Z" fill="#F79901"/>
<path d="M32.5681 27.0303C32.0633 26.6253 31.326 26.7062 30.9208 27.211L27.9026 30.9738L26.034 29.62C25.51 29.2401 24.7769 29.3573 24.3973 29.8813C24.0177 30.4055 24.1349 31.1383 24.6588 31.5179L27.4308 33.5263C27.6383 33.6764 27.8788 33.7494 28.1177 33.7494C28.4616 33.7494 28.8016 33.5983 29.0323 33.3105L32.7491 28.6776C33.154 28.1729 33.0732 27.4353 32.5681 27.0303Z" fill="#F79901"/>
<path d="M35.5301 23.4329C34.0036 21.8796 32.0422 20.9006 29.917 20.6122V4.71954C29.917 2.11731 27.7997 0 25.1974 0H4.71985C2.11731 0 0 2.11731 0 4.71954V31.8658C0 34.4684 2.11731 36.5857 4.71954 36.5857H21.1896C23.0429 38.7628 25.7077 40 28.5907 40C33.9572 40 38.3231 35.6311 38.3231 30.2609C38.3231 27.6901 37.3312 25.2652 35.5301 23.4329ZM2.34375 31.8658V4.71954C2.34375 3.40973 3.40973 2.34375 4.71985 2.34375H25.1974C26.5076 2.34375 27.5732 3.40973 27.5732 4.71954V20.575C22.6831 21.0855 18.8583 25.2344 18.8583 30.2609C18.8583 31.6541 19.1489 33.0011 19.7061 34.2416H4.71985C3.40973 34.2416 2.34375 33.176 2.34375 31.8658ZM28.5907 37.6562C26.2503 37.6562 24.0988 36.5817 22.6874 34.7086C21.7157 33.4186 21.2018 31.8808 21.2018 30.2609C21.2018 26.1832 24.5166 22.8656 28.5907 22.8656C28.6292 22.8656 28.6679 22.8662 28.7064 22.8668L28.7244 22.8671C30.6693 22.9016 32.4927 23.6859 33.8586 25.0757C35.2261 26.467 35.9793 28.3087 35.9793 30.2609C35.9793 34.3387 32.6648 37.6562 28.5907 37.6562Z" fill="#F79901"/>
</g>
<defs>
<clipPath id="clip0_1_530">
<rect width="38.3594" height="40" fill="white"/>
</clipPath>
</defs>
</svg>
