<svg width="182" height="153" viewBox="0 0 182 153" fill="none" xmlns="http://www.w3.org/2000/svg">
<g filter="url(#filter0_dd_1_518)">
<path fill-rule="evenodd" clip-rule="evenodd" d="M45.0833 36.2308C46.7862 36.2308 48.1667 34.836 48.1667 33.1154C48.1667 31.3948 46.7862 30 45.0833 30C43.3805 30 42 31.3948 42 33.1154C42 34.836 43.3805 36.2308 45.0833 36.2308ZM45.0833 67.3846C46.7862 67.3846 48.1667 65.9898 48.1667 64.2692C48.1667 62.5486 46.7862 61.1538 45.0833 61.1538C43.3805 61.1538 42 62.5486 42 64.2692C42 65.9898 43.3805 67.3846 45.0833 67.3846ZM48.1667 95.4231C48.1667 97.1437 46.7862 98.5385 45.0833 98.5385C43.3805 98.5385 42 97.1437 42 95.4231C42 93.7025 43.3805 92.3077 45.0833 92.3077C46.7862 92.3077 48.1667 93.7025 48.1667 95.4231ZM106.083 36.6923C107.786 36.6923 109.167 35.2975 109.167 33.5769C109.167 31.8563 107.786 30.4615 106.083 30.4615C104.38 30.4615 103 31.8563 103 33.5769C103 35.2975 104.38 36.6923 106.083 36.6923ZM109.167 64.7308C109.167 66.4513 107.786 67.8461 106.083 67.8461C104.38 67.8461 103 66.4513 103 64.7308C103 63.0102 104.38 61.6154 106.083 61.6154C107.786 61.6154 109.167 63.0102 109.167 64.7308ZM106.083 99C107.786 99 109.167 97.6052 109.167 95.8846C109.167 94.164 107.786 92.7692 106.083 92.7692C104.38 92.7692 103 94.164 103 95.8846C103 97.6052 104.38 99 106.083 99ZM79 33.1154C79 34.836 77.6195 36.2308 75.9167 36.2308C74.2138 36.2308 72.8333 34.836 72.8333 33.1154C72.8333 31.3948 74.2138 30 75.9167 30C77.6195 30 79 31.3948 79 33.1154ZM75.9167 67.3846C77.6195 67.3846 79 65.9898 79 64.2692C79 62.5486 77.6195 61.1538 75.9167 61.1538C74.2138 61.1538 72.8333 62.5486 72.8333 64.2692C72.8333 65.9898 74.2138 67.3846 75.9167 67.3846ZM79 95.4231C79 97.1437 77.6195 98.5385 75.9167 98.5385C74.2138 98.5385 72.8333 97.1437 72.8333 95.4231C72.8333 93.7025 74.2138 92.3077 75.9167 92.3077C77.6195 92.3077 79 93.7025 79 95.4231ZM136.917 36.6923C138.62 36.6923 140 35.2975 140 33.5769C140 31.8563 138.62 30.4615 136.917 30.4615C135.214 30.4615 133.833 31.8563 133.833 33.5769C133.833 35.2975 135.214 36.6923 136.917 36.6923ZM140 64.7308C140 66.4513 138.62 67.8461 136.917 67.8461C135.214 67.8461 133.833 66.4513 133.833 64.7308C133.833 63.0102 135.214 61.6154 136.917 61.6154C138.62 61.6154 140 63.0102 140 64.7308ZM136.917 99C138.62 99 140 97.6052 140 95.8846C140 94.164 138.62 92.7692 136.917 92.7692C135.214 92.7692 133.833 94.164 133.833 95.8846C133.833 97.6052 135.214 99 136.917 99Z" fill="#F79901"/>
</g>
<defs>
<filter id="filter0_dd_1_518" x="0" y="0" width="182" height="153" filterUnits="userSpaceOnUse" color-interpolation-filters="sRGB">
<feFlood flood-opacity="0" result="BackgroundImageFix"/>
<feColorMatrix in="SourceAlpha" type="matrix" values="0 0 0 0 0 0 0 0 0 0 0 0 0 0 0 0 0 0 127 0" result="hardAlpha"/>
<feOffset dy="12"/>
<feGaussianBlur stdDeviation="21"/>
<feColorMatrix type="matrix" values="0 0 0 0 1 0 0 0 0 0.403922 0 0 0 0 0 0 0 0 0.22 0"/>
<feBlend mode="normal" in2="BackgroundImageFix" result="effect1_dropShadow_1_518"/>
<feColorMatrix in="SourceAlpha" type="matrix" values="0 0 0 0 0 0 0 0 0 0 0 0 0 0 0 0 0 0 127 0" result="hardAlpha"/>
<feOffset dy="8"/>
<feGaussianBlur stdDeviation="9"/>
<feColorMatrix type="matrix" values="0 0 0 0 1 0 0 0 0 0.403922 0 0 0 0 0 0 0 0 0.32 0"/>
<feBlend mode="normal" in2="effect1_dropShadow_1_518" result="effect2_dropShadow_1_518"/>
<feBlend mode="normal" in="SourceGraphic" in2="effect2_dropShadow_1_518" result="shape"/>
</filter>
</defs>
</svg>
