<svg width="180" height="72" viewBox="0 0 180 72" fill="none" xmlns="http://www.w3.org/2000/svg">
<rect x="1" y="1" width="178" height="70" rx="4" stroke="white" stroke-width="2"/>
<path d="M89.6508 37.9214C88.6886 37.9261 87.7492 38.2293 86.9513 38.7927C86.1534 39.356 85.5328 40.1543 85.1677 41.0868C84.8026 42.0193 84.7094 43.0441 84.8999 44.032C85.0904 45.0199 85.556 45.9266 86.238 46.6376C86.9201 47.3485 87.7879 47.832 88.732 48.0268C89.6761 48.2217 90.6542 48.1193 91.5428 47.7325C92.4314 47.3458 93.1906 46.692 93.7248 45.8537C94.2589 45.0154 94.544 44.0301 94.544 43.0223C94.5534 42.3477 94.433 41.678 94.1901 41.0531C93.9472 40.4283 93.5868 39.861 93.1302 39.385C92.6736 38.9091 92.1303 38.5342 91.5326 38.2828C90.9348 38.0313 90.2949 37.9084 89.6508 37.9214ZM89.6508 46.1188C89.059 46.1622 88.4685 46.018 87.9559 45.7052C87.4434 45.3924 87.0325 44.9253 86.7768 44.3646C86.5211 43.804 86.4323 43.1757 86.522 42.5616C86.6117 41.9474 86.8758 41.3757 87.2798 40.9207C87.6839 40.4658 88.2093 40.1487 88.7877 40.0107C89.3661 39.8726 89.9708 39.92 90.5231 40.1467C91.0755 40.3733 91.5499 40.7688 91.8849 41.2816C92.2198 41.7944 92.3997 42.4009 92.4011 43.0223C92.4196 43.416 92.3626 43.8095 92.2335 44.1798C92.1044 44.55 91.9058 44.8895 91.6495 45.1781C91.3932 45.4667 91.0843 45.6986 90.741 45.8602C90.3978 46.0217 90.0271 46.1097 89.6508 46.1188ZM78.9821 37.9214C78.0193 37.9237 77.0788 38.2249 76.2794 38.7869C75.48 39.3488 74.8576 40.1463 74.4907 41.0785C74.1239 42.0108 74.029 43.0361 74.2183 44.0247C74.4075 45.0134 74.8722 45.9212 75.5538 46.6334C76.2354 47.3455 77.1032 47.8302 78.0476 48.026C78.992 48.2219 79.9707 48.1202 80.8599 47.7337C81.7492 47.3473 82.5092 46.6935 83.0438 45.8549C83.5785 45.0163 83.8638 44.0306 83.8638 43.0223C83.8731 42.3477 83.7528 41.678 83.5099 41.0531C83.267 40.4283 82.9066 39.861 82.45 39.385C81.9934 38.9091 81.4501 38.5342 80.8524 38.2828C80.2546 38.0313 79.6147 37.9084 78.9706 37.9214H78.9821ZM78.9821 46.1188C78.39 46.1646 77.7985 46.0226 77.2845 45.7114C76.7706 45.4002 76.358 44.9341 76.1004 44.3738C75.8429 43.8136 75.7524 43.1851 75.8407 42.5702C75.929 41.9553 76.192 41.3825 76.5954 40.9263C76.9989 40.4702 77.5241 40.1518 78.1028 40.0127C78.6814 39.8735 79.2866 39.92 79.8397 40.1462C80.3927 40.3723 80.8679 40.7676 81.2034 41.2806C81.539 41.7936 81.7193 42.4005 81.7209 43.0223C81.7394 43.416 81.6824 43.8095 81.5533 44.1798C81.4242 44.55 81.2256 44.8895 80.9693 45.1781C80.713 45.4667 80.4041 45.6986 80.0608 45.8602C79.7175 46.0217 79.3469 46.1097 78.9706 46.1188H78.9821ZM66.2736 39.4936V41.654H71.224C71.1464 42.6716 70.7426 43.6317 70.0781 44.3785C69.5828 44.9069 68.9874 45.3208 68.3302 45.5937C67.673 45.8665 66.9685 45.9923 66.2621 45.9628C64.8033 45.9628 63.4042 45.3558 62.3726 44.2754C61.3411 43.195 60.7616 41.7297 60.7616 40.2018C60.7616 38.6739 61.3411 37.2085 62.3726 36.1281C63.4042 35.0477 64.8033 34.4408 66.2621 34.4408C67.6576 34.4169 69.0052 34.9737 70.0093 35.989L71.4647 34.4648C70.7868 33.7459 69.9781 33.1768 69.0864 32.7913C68.1947 32.4057 67.2382 32.2116 66.2736 32.2204C65.2548 32.1788 64.2385 32.3531 63.2856 32.7328C62.3328 33.1125 61.4628 33.6897 60.7281 34.43C59.9933 35.1702 59.4087 36.0581 59.0094 37.0406C58.6101 38.0231 58.4043 39.08 58.4043 40.1478C58.4043 41.2156 58.6101 42.2724 59.0094 43.2549C59.4087 44.2374 59.9933 45.1253 60.7281 45.8656C61.4628 46.6058 62.3328 47.183 63.2856 47.5627C64.2385 47.9424 65.2548 48.1167 66.2736 48.0752C67.2544 48.1216 68.2334 47.9474 69.1447 47.5644C70.0559 47.1814 70.8782 46.5985 71.5564 45.8548C72.7569 44.4732 73.3979 42.6571 73.344 40.7899C73.3477 40.335 73.3094 39.8808 73.2294 39.4336L66.2736 39.4936ZM118.196 41.1739C117.897 40.2531 117.339 39.449 116.594 38.8682C115.849 38.2873 114.953 37.9572 114.025 37.9214C113.398 37.9201 112.778 38.0535 112.202 38.3133C111.626 38.5731 111.108 38.9538 110.678 39.4319C110.249 39.91 109.917 40.4752 109.704 41.0928C109.492 41.7103 109.402 42.367 109.441 43.0223C109.427 43.6931 109.543 44.36 109.78 44.983C110.018 45.6061 110.373 46.1727 110.825 46.6488C111.276 47.1249 111.814 47.5009 112.408 47.7542C113.001 48.0075 113.637 48.133 114.277 48.1232C115.079 48.1277 115.869 47.9239 116.577 47.5302C117.285 47.1364 117.888 46.5649 118.334 45.8668L116.672 44.6666C116.424 45.0996 116.073 45.4577 115.653 45.706C115.233 45.9542 114.759 46.0841 114.277 46.0828C113.781 46.1026 113.29 45.9656 112.869 45.6894C112.448 45.4133 112.116 45.0109 111.917 44.5345L118.437 41.714L118.196 41.1739ZM111.55 42.8782C111.527 42.507 111.574 42.1347 111.69 41.783C111.806 41.4313 111.988 41.1074 112.225 40.8302C112.462 40.553 112.749 40.3281 113.07 40.1687C113.391 40.0092 113.739 39.9185 114.094 39.9017C114.463 39.8762 114.832 39.965 115.154 40.157C115.476 40.3491 115.737 40.6359 115.904 40.9819L111.55 42.8782ZM106.256 47.8231H108.398V32.8205H106.256V47.8231ZM102.749 39.0616H102.669C102.346 38.6834 101.95 38.381 101.508 38.1741C101.065 37.9673 100.586 37.8607 100.102 37.8614C98.8495 37.925 97.6686 38.4908 96.8038 39.4415C95.939 40.3923 95.4566 41.6551 95.4566 42.9683C95.4566 44.2814 95.939 45.5442 96.8038 46.495C97.6686 47.4457 98.8495 48.0116 100.102 48.0752C100.587 48.0837 101.069 47.9807 101.512 47.7733C101.956 47.566 102.351 47.2593 102.669 46.8749H102.738V47.6071C102.738 49.5634 101.741 50.6076 100.136 50.6076C99.6019 50.5945 99.0834 50.4152 98.6466 50.0924C98.2099 49.7697 97.8748 49.3182 97.6839 48.7953L95.816 49.6114C96.1676 50.5072 96.7667 51.2726 97.5365 51.8093C98.3062 52.3461 99.2115 52.6298 100.136 52.624C102.646 52.624 104.72 51.0757 104.72 47.307V38.2214H102.749V39.0616ZM100.297 46.1188C99.5575 46.0506 98.8695 45.6948 98.3683 45.1216C97.8672 44.5485 97.5892 43.7995 97.5892 43.0223C97.5892 42.2451 97.8672 41.4961 98.3683 40.9229C98.8695 40.3497 99.5575 39.9939 100.297 39.9257C100.663 39.9454 101.022 40.0417 101.353 40.209C101.683 40.3763 101.978 40.6111 102.221 40.8997C102.463 41.1883 102.648 41.5247 102.764 41.8893C102.88 42.2538 102.926 42.639 102.898 43.0223C102.929 43.4072 102.886 43.7947 102.77 44.1615C102.654 44.5282 102.468 44.8665 102.224 45.156C101.98 45.4454 101.682 45.68 101.349 45.8455C101.016 46.011 100.654 46.104 100.285 46.1188H100.297ZM128.235 32.8205H123.112V47.8231H125.255V42.1341H128.246C128.857 42.1801 129.47 42.0937 130.048 41.8805C130.625 41.6673 131.155 41.3318 131.603 40.8949C132.051 40.458 132.408 39.929 132.653 39.341C132.897 38.753 133.023 38.1186 133.023 37.4773C133.023 36.836 132.897 36.2016 132.653 35.6136C132.408 35.0256 132.051 34.4966 131.603 34.0597C131.155 33.6228 130.625 33.2872 130.048 33.074C129.47 32.8608 128.857 32.7745 128.246 32.8205H128.235ZM128.235 40.0217H125.244V34.9088H128.281C128.933 34.9088 129.558 35.1801 130.019 35.6629C130.48 36.1457 130.739 36.8005 130.739 37.4833C130.739 38.1661 130.48 38.8209 130.019 39.3037C129.558 39.7865 128.933 40.0577 128.281 40.0577L128.235 40.0217ZM141.448 37.8614C140.667 37.8125 139.891 38.0035 139.213 38.4107C138.535 38.818 137.985 39.4238 137.632 40.1538L139.534 40.9819C139.721 40.6199 140.005 40.3227 140.351 40.1267C140.697 39.9306 141.09 39.8441 141.482 39.8777C141.754 39.8444 142.03 39.8682 142.293 39.9477C142.556 40.0272 142.801 40.1608 143.015 40.3406C143.228 40.5205 143.405 40.7431 143.535 40.9954C143.666 41.2477 143.747 41.5246 143.774 41.8101V41.9661C143.086 41.5844 142.318 41.3865 141.539 41.39C139.488 41.39 137.414 42.5902 137.414 44.7626C137.434 45.2258 137.543 45.68 137.734 46.0985C137.924 46.5169 138.193 46.8911 138.524 47.1988C138.856 47.5065 139.242 47.7415 139.662 47.89C140.081 48.0385 140.525 48.0973 140.966 48.0632C141.506 48.1037 142.046 47.9914 142.53 47.738C143.014 47.4846 143.424 47.0994 143.716 46.6229H143.785V47.8231H145.848V42.0501C145.848 39.4216 143.946 37.8974 141.505 37.8974L141.448 37.8614ZM141.184 46.0828C140.485 46.0828 139.511 45.7107 139.511 44.8106C139.511 43.6104 140.726 43.2143 141.803 43.2143C142.484 43.1967 143.156 43.3708 143.751 43.7184C143.679 44.3682 143.386 44.969 142.925 45.4101C142.463 45.8512 141.866 46.1029 141.241 46.1188L141.184 46.0828ZM153.365 38.2214L150.913 44.7266H150.844L148.3 38.2214H146.008L149.824 47.319L147.647 52.3719H149.882L155.749 38.2214H153.365ZM134.102 47.8231H136.245V32.8205H134.102V47.8231Z" fill="white"/>
<path d="M65.8364 24.1839C65.8559 24.6241 65.7897 25.0639 65.642 25.4765C65.4942 25.8892 65.268 26.2661 64.9769 26.5843C64.6519 26.9379 64.2595 27.2158 63.8251 27.3998C63.3907 27.5839 62.9241 27.67 62.4558 27.6525C61.7453 27.6467 61.0523 27.4214 60.4635 27.0048C59.8747 26.5883 59.4164 25.999 59.146 25.3108C58.8756 24.6226 58.8051 23.8662 58.9434 23.1362C59.0816 22.4063 59.4225 21.7353 59.9233 21.2074C60.2524 20.8555 60.647 20.578 61.0826 20.3922C61.5182 20.2064 61.9856 20.1162 62.4558 20.1272C62.9403 20.1255 63.42 20.2276 63.8653 20.4272C64.28 20.6024 64.6492 20.878 64.9425 21.2314L64.3352 21.8675C64.1065 21.5826 63.8176 21.3572 63.4914 21.2093C63.1653 21.0614 62.8107 20.995 62.4558 21.0153C62.0979 21.0135 61.7433 21.0874 61.4133 21.2326C61.0832 21.3777 60.7846 21.5912 60.5353 21.8602C60.2859 22.1292 60.091 22.4482 59.9622 22.7979C59.8335 23.1477 59.7734 23.5212 59.7858 23.8958C59.7783 24.4553 59.9291 25.0046 60.2193 25.4743C60.5095 25.9441 60.9261 26.3133 61.4164 26.5354C61.9067 26.7575 62.4489 26.8226 62.9744 26.7223C63.5 26.6221 63.9855 26.3611 64.3696 25.9722C64.7222 25.572 64.9256 25.0523 64.9425 24.508H62.4558V23.6438H65.7905C65.8211 23.8221 65.8364 24.0028 65.8364 24.1839ZM71.0848 21.1834H67.9907V23.4638H70.8098V24.3279H67.9907V26.6083H71.0848V27.4965H67.074V20.2952H71.0848V21.1834ZM74.8435 27.4965H73.9611V21.1834H72.0359V20.2952H76.8145V21.1834H74.8435V27.4965ZM80.1836 27.4965V20.2952H81.066V27.4965H80.1836ZM84.9851 27.4965H84.1027V21.1834H82.1775V20.2952H86.8988V21.1834H84.9851V27.4965ZM95.8487 26.5603C95.1787 27.2581 94.2724 27.6497 93.3276 27.6497C92.3828 27.6497 91.4764 27.2581 90.8065 26.5603C90.1554 25.8384 89.7926 24.883 89.7926 23.8898C89.7926 22.8967 90.1554 21.9413 90.8065 21.2194C91.1367 20.871 91.5295 20.5945 91.9622 20.4058C92.3948 20.2172 92.8589 20.12 93.3276 20.12C93.7963 20.12 94.2603 20.2172 94.693 20.4058C95.1257 20.5945 95.5185 20.871 95.8487 21.2194C96.5024 21.9399 96.8669 22.8959 96.8669 23.8898C96.8669 24.8838 96.5024 25.8398 95.8487 26.5603ZM91.4597 25.9602C91.9558 26.4777 92.6274 26.7682 93.3276 26.7682C94.0277 26.7682 94.6994 26.4777 95.1955 25.9602C95.6851 25.3949 95.9563 24.6591 95.9563 23.8958C95.9563 23.1326 95.6851 22.3968 95.1955 21.8315C94.6994 21.314 94.0277 21.0235 93.3276 21.0235C92.6274 21.0235 91.9558 21.314 91.4597 21.8315C90.9701 22.3968 90.6989 23.1326 90.6989 23.8958C90.6989 24.6591 90.9701 25.3949 91.4597 25.9602ZM98.1062 27.4965V20.2952H99.1834L102.53 25.9002V20.2952H103.412V27.4965H102.495L99 21.6274V27.4965H98.1062Z" fill="white"/>
<path fill-rule="evenodd" clip-rule="evenodd" d="M93.3276 20.24C92.874 20.24 92.4249 20.334 92.0062 20.5166C91.5879 20.699 91.2082 20.9662 90.8888 21.3029C90.2584 22.0024 89.9072 22.9279 89.9072 23.8898C89.9072 24.8517 90.2583 25.7771 90.8886 26.4765C91.5369 27.1511 92.4137 27.5297 93.3276 27.5297C94.2416 27.5297 95.1184 27.151 95.7667 26.4764C96.3995 25.7783 96.7523 24.8525 96.7523 23.8898C96.7523 22.9271 96.3994 22.0011 95.7665 21.303C95.4471 20.9663 95.0673 20.6991 94.649 20.5166C94.2302 20.334 93.7812 20.24 93.3276 20.24ZM91.9181 20.295C92.3648 20.1003 92.8438 20 93.3276 20C93.8114 20 94.2904 20.1003 94.7371 20.295C95.1837 20.4898 95.5891 20.7752 95.93 21.1348L95.9318 21.1367C96.6057 21.8795 96.9815 22.8651 96.9815 23.8898C96.9815 24.9146 96.6057 25.9002 95.9317 26.643L95.9295 26.6455C95.2381 27.3656 94.3027 27.7697 93.3276 27.7697C92.3525 27.7697 91.4171 27.3655 90.7257 26.6454L90.7232 26.6428C90.0519 25.8986 89.678 24.9136 89.678 23.8898C89.678 22.8661 90.052 21.8811 90.7232 21.137L90.7252 21.1348C91.066 20.7752 91.4715 20.4898 91.9181 20.295ZM62.4533 20.2472C61.9987 20.2366 61.5469 20.3238 61.1258 20.5034C60.7047 20.683 60.3233 20.9512 60.0052 21.2914L60.0046 21.292C59.5197 21.8031 59.1897 22.4528 59.0558 23.1596C58.9219 23.8664 58.9901 24.5988 59.252 25.2651C59.5138 25.9314 59.9576 26.502 60.5276 26.9054C61.0977 27.3087 61.7688 27.5269 62.4567 27.5325L62.4599 27.5325C62.9121 27.5494 63.3626 27.4663 63.7821 27.2886C64.2015 27.1109 64.5805 26.8426 64.8942 26.5012C65.1745 26.1947 65.3924 25.8318 65.5347 25.4344C65.677 25.037 65.7407 24.6134 65.7219 24.1895L65.8364 24.1839L65.7218 24.1839C65.7218 24.0433 65.7122 23.9029 65.693 23.7638H62.5704V24.3879H65.0609L65.0571 24.5119C65.0392 25.085 64.8251 25.6322 64.4538 26.0536L64.4493 26.0587C64.049 26.464 63.5428 26.7359 62.995 26.8404C62.4471 26.9449 61.882 26.8771 61.3709 26.6456C60.8598 26.4141 60.4256 26.0292 60.1231 25.5395C59.8211 25.0507 59.6639 24.4792 59.6712 23.8971C59.6587 23.5072 59.7213 23.1187 59.8553 22.7548C59.9897 22.3899 60.193 22.0572 60.4531 21.7766C60.7131 21.496 61.0246 21.2733 61.3689 21.1219C61.7121 20.9709 62.0808 20.8939 62.453 20.8953C62.8245 20.8746 63.1955 20.9444 63.537 21.0992C63.8412 21.2372 64.1146 21.4393 64.3402 21.6925L64.7844 21.2272C64.5154 20.9278 64.1873 20.6927 63.8225 20.5385L63.8203 20.5376C63.3892 20.3444 62.925 20.2456 62.4562 20.2472L62.4533 20.2472ZM65.951 24.1811C65.9708 24.6367 65.9022 25.0917 65.7493 25.5187C65.5961 25.9465 65.3615 26.3373 65.0597 26.6673C64.7235 27.0331 64.3174 27.3207 63.868 27.5111C63.4192 27.7013 62.9372 27.7903 62.4533 27.7725C61.7208 27.7662 61.0064 27.5337 60.3993 27.1043C59.7919 26.6745 59.319 26.0665 59.04 25.3565C58.761 24.6465 58.6883 23.866 58.831 23.1129C58.9736 22.3599 59.3252 21.6677 59.8417 21.1231C60.1818 20.7596 60.5894 20.473 61.0394 20.2811C61.4891 20.0893 61.9715 19.996 62.4569 20.0072C62.9561 20.0056 63.4503 20.1109 63.9093 20.3164C64.3403 20.4987 64.724 20.7852 65.029 21.1526L65.0991 21.2371L64.3279 22.0449L64.2475 21.9447C64.0302 21.674 63.7558 21.46 63.4459 21.3195C63.1361 21.179 62.7992 21.1159 62.4621 21.1352L62.4553 21.1356C62.1128 21.1338 61.7734 21.2043 61.4576 21.3432C61.1418 21.4821 60.8561 21.6864 60.6175 21.9438C60.3789 22.2012 60.1924 22.5064 60.0692 22.8411C59.9459 23.1758 59.8885 23.5332 59.9003 23.8917L59.9005 23.8975C59.8933 24.4333 60.0376 24.9593 60.3155 25.4091C60.5934 25.859 60.9923 26.2126 61.4619 26.4253C61.9314 26.638 62.4506 26.7002 62.9539 26.6043C63.4561 26.5085 63.9201 26.2594 64.2876 25.8883C64.5933 25.5401 64.7801 25.0969 64.8207 24.628H62.3412V23.5238H65.8864L65.9033 23.6226C65.9349 23.8069 65.9509 23.9939 65.951 24.1811ZM66.9594 20.1752H71.1994V21.3034H68.1053V23.3438H70.9244V24.4479H68.1053V26.4883H71.1994V27.6165H66.9594V20.1752ZM67.1886 20.4152V27.3765H70.9702V26.7284H67.8762V24.2079H70.6952V23.5838H67.8762V21.0633H70.9702V20.4152H67.1886ZM71.9213 20.1752H76.9291V21.3034H74.9581V27.6165H73.8465V21.3034H71.9213V20.1752ZM72.1505 20.4152V21.0633H74.0757V27.3765H74.7289V21.0633H76.6999V20.4152H72.1505ZM80.069 20.1752H81.1806V27.6165H80.069V20.1752ZM80.2982 20.4152V27.3765H80.9514V20.4152H80.2982ZM82.063 20.1752H87.0134V21.3034H85.0997V27.6165H83.9881V21.3034H82.063V20.1752ZM82.2921 20.4152V21.0633H84.2173V27.3765H84.8705V21.0633H86.7842V20.4152H82.2921ZM97.9916 20.1752H99.2469L102.415 25.4819V20.1752H103.526V27.6165H102.432L99.1146 22.0467V27.6165H97.9916V20.1752ZM98.2208 20.4152V27.3765H98.8854V21.2082L102.559 27.3765H103.297V20.4152H102.644V26.3185L99.1199 20.4152H98.2208ZM91.3788 21.7464C91.8964 21.2066 92.5971 20.9035 93.3276 20.9035C94.058 20.9035 94.7588 21.2066 95.2763 21.7464L95.2805 21.7507C95.7892 22.3381 96.0709 23.1028 96.0709 23.8958C96.0709 24.6889 95.7891 25.4535 95.2804 26.0409L95.2764 26.0454C94.7589 26.5852 94.058 26.8882 93.3276 26.8882C92.5971 26.8882 91.8964 26.5851 91.3788 26.0453L91.4597 25.9602L91.3748 26.0409C90.8661 25.4535 90.5843 24.6889 90.5843 23.8958C90.5843 23.1028 90.8661 22.3382 91.3748 21.7508L91.3788 21.7464ZM91.5426 25.8773C92.0171 26.371 92.6587 26.6481 93.3276 26.6481C93.9965 26.6481 94.6381 26.371 95.1125 25.8773C95.5818 25.3344 95.8417 24.6282 95.8417 23.8958C95.8417 23.1635 95.5818 22.4573 95.1125 21.9144C94.6381 21.4207 93.9965 21.1436 93.3276 21.1436C92.6587 21.1436 92.0171 21.4207 91.5426 21.9144C91.0734 22.4573 90.8135 23.1635 90.8135 23.8958C90.8135 24.6282 91.0734 25.3344 91.5426 25.8773Z" fill="white"/>
<path d="M23.5947 51.0651L37.6332 35.8149L23.6065 20.592C23.2318 20.829 23 21.3778 23 22.0961V49.5756C23.005 50.2939 23.2285 50.8026 23.5947 51.0651Z" fill="white"/>
<path d="M38.1372 35.3917L42.3188 30.8486L25.2898 20.7049C25.0031 20.5239 24.6774 20.4283 24.3456 20.4277L38.1355 35.3899L38.1372 35.3917Z" fill="white"/>
<path d="M38.1363 36.2371L24.3027 51.2649C24.6499 51.2712 24.9919 51.1727 25.2906 50.9805L42.3532 40.8094L38.1363 36.2371Z" fill="white"/>
<path d="M48.4881 34.5261L42.8213 31.1443L38.5254 35.8114L42.8532 40.5077L48.4864 37.135C49.6843 36.4185 49.6842 35.239 48.4881 34.5261Z" fill="white"/>
</svg>
