<svg width="17" height="16" viewBox="0 0 17 16" fill="none" xmlns="http://www.w3.org/2000/svg">
<path d="M13.0304 7.55042L4.98036 1.26292C4.95932 1.24636 4.93404 1.23607 4.90742 1.23323C4.8808 1.23038 4.85392 1.23511 4.82987 1.24686C4.80581 1.25861 4.78556 1.2769 4.77143 1.29964C4.7573 1.32238 4.74987 1.34865 4.75 1.37542V2.75578C4.75 2.84328 4.79107 2.9272 4.85893 2.98078L11.2875 8.00042L4.85893 13.0201C4.78929 13.0736 4.75 13.1576 4.75 13.2451V14.6254C4.75 14.7451 4.8875 14.8111 4.98036 14.7379L13.0304 8.45042C13.0988 8.39705 13.1541 8.32878 13.1922 8.2508C13.2303 8.17282 13.2501 8.08719 13.2501 8.00042C13.2501 7.91364 13.2303 7.82801 13.1922 7.75004C13.1541 7.67206 13.0988 7.60379 13.0304 7.55042Z" fill="white"/>
</svg>
