<svg width="130" height="28" viewBox="0 0 130 28" fill="none" xmlns="http://www.w3.org/2000/svg">
<path d="M0 27.2573H23.6442V21.9841H7.29249V0.742705H0V27.2573Z" fill="white"/>
<path d="M0 27.2573H23.6442V21.9841H7.29249V0.742705H0V27.2573Z" fill="#C8C8C8"/>
<path d="M0 27.2573H23.6442V21.9841H7.29249V0.742705H0V27.2573Z" fill="url(#paint0_radial_21_92)"/>
<path d="M0 27.2573H23.6442V21.9841H7.29249V0.742705H0V27.2573Z" fill="white" fill-opacity="0.2"/>
<path d="M33.368 14C33.368 9.87798 35.6986 5.0504 42.3145 5.0504C48.9304 5.0504 51.2609 9.87798 51.2609 14C51.2609 18.122 48.9304 22.9496 42.3145 22.9496C35.6986 22.9496 33.368 18.122 33.368 14ZM25.6244 14C25.6244 19.5332 27.8799 28 42.3145 28C56.7491 28 59.0045 19.5332 59.0045 14C59.0045 8.46684 56.7491 0 42.3145 0C27.8799 0 25.6244 8.46684 25.6244 14Z" fill="white"/>
<path d="M33.368 14C33.368 9.87798 35.6986 5.0504 42.3145 5.0504C48.9304 5.0504 51.2609 9.87798 51.2609 14C51.2609 18.122 48.9304 22.9496 42.3145 22.9496C35.6986 22.9496 33.368 18.122 33.368 14ZM25.6244 14C25.6244 19.5332 27.8799 28 42.3145 28C56.7491 28 59.0045 19.5332 59.0045 14C59.0045 8.46684 56.7491 0 42.3145 0C27.8799 0 25.6244 8.46684 25.6244 14Z" fill="#C8C8C8"/>
<path d="M33.368 14C33.368 9.87798 35.6986 5.0504 42.3145 5.0504C48.9304 5.0504 51.2609 9.87798 51.2609 14C51.2609 18.122 48.9304 22.9496 42.3145 22.9496C35.6986 22.9496 33.368 18.122 33.368 14ZM25.6244 14C25.6244 19.5332 27.8799 28 42.3145 28C56.7491 28 59.0045 19.5332 59.0045 14C59.0045 8.46684 56.7491 0 42.3145 0C27.8799 0 25.6244 8.46684 25.6244 14Z" fill="url(#paint1_radial_21_92)"/>
<path d="M33.368 14C33.368 9.87798 35.6986 5.0504 42.3145 5.0504C48.9304 5.0504 51.2609 9.87798 51.2609 14C51.2609 18.122 48.9304 22.9496 42.3145 22.9496C35.6986 22.9496 33.368 18.122 33.368 14ZM25.6244 14C25.6244 19.5332 27.8799 28 42.3145 28C56.7491 28 59.0045 19.5332 59.0045 14C59.0045 8.46684 56.7491 0 42.3145 0C27.8799 0 25.6244 8.46684 25.6244 14Z" fill="white" fill-opacity="0.2"/>
<path d="M79.6166 17.0822H86.1197C85.2175 21.4642 82.2103 22.9496 78.1881 22.9496C71.5723 22.9496 69.2417 18.122 69.2417 14C69.2417 9.87798 71.5723 5.0504 78.1881 5.0504C80.857 5.0504 83.9018 6.01591 85.0295 9.43236H93.149C91.8334 2.15385 84.7664 0 77.3611 0C67.2494 0 61.4981 5.83024 61.4981 14C61.4981 23.8408 67.5877 28 77.3611 28C82.0599 28 86.0821 26.8859 88.6382 24.1751L89.6155 27.2573H93.2994V12.4775H79.6166V17.0822Z" fill="white"/>
<path d="M79.6166 17.0822H86.1197C85.2175 21.4642 82.2103 22.9496 78.1881 22.9496C71.5723 22.9496 69.2417 18.122 69.2417 14C69.2417 9.87798 71.5723 5.0504 78.1881 5.0504C80.857 5.0504 83.9018 6.01591 85.0295 9.43236H93.149C91.8334 2.15385 84.7664 0 77.3611 0C67.2494 0 61.4981 5.83024 61.4981 14C61.4981 23.8408 67.5877 28 77.3611 28C82.0599 28 86.0821 26.8859 88.6382 24.1751L89.6155 27.2573H93.2994V12.4775H79.6166V17.0822Z" fill="#C8C8C8"/>
<path d="M79.6166 17.0822H86.1197C85.2175 21.4642 82.2103 22.9496 78.1881 22.9496C71.5723 22.9496 69.2417 18.122 69.2417 14C69.2417 9.87798 71.5723 5.0504 78.1881 5.0504C80.857 5.0504 83.9018 6.01591 85.0295 9.43236H93.149C91.8334 2.15385 84.7664 0 77.3611 0C67.2494 0 61.4981 5.83024 61.4981 14C61.4981 23.8408 67.5877 28 77.3611 28C82.0599 28 86.0821 26.8859 88.6382 24.1751L89.6155 27.2573H93.2994V12.4775H79.6166V17.0822Z" fill="url(#paint2_radial_21_92)"/>
<path d="M79.6166 17.0822H86.1197C85.2175 21.4642 82.2103 22.9496 78.1881 22.9496C71.5723 22.9496 69.2417 18.122 69.2417 14C69.2417 9.87798 71.5723 5.0504 78.1881 5.0504C80.857 5.0504 83.9018 6.01591 85.0295 9.43236H93.149C91.8334 2.15385 84.7664 0 77.3611 0C67.2494 0 61.4981 5.83024 61.4981 14C61.4981 23.8408 67.5877 28 77.3611 28C82.0599 28 86.0821 26.8859 88.6382 24.1751L89.6155 27.2573H93.2994V12.4775H79.6166V17.0822Z" fill="white" fill-opacity="0.2"/>
<path d="M104.364 14C104.364 9.87798 106.694 5.0504 113.31 5.0504C119.926 5.0504 122.256 9.87798 122.256 14C122.256 18.122 119.926 22.9496 113.31 22.9496C106.694 22.9496 104.364 18.122 104.364 14ZM96.6199 14C96.6199 19.5332 98.8754 28 113.31 28C127.745 28 130 19.5332 130 14C130 8.46684 127.745 0 113.31 0C98.8754 0 96.6199 8.46684 96.6199 14Z" fill="white"/>
<path d="M104.364 14C104.364 9.87798 106.694 5.0504 113.31 5.0504C119.926 5.0504 122.256 9.87798 122.256 14C122.256 18.122 119.926 22.9496 113.31 22.9496C106.694 22.9496 104.364 18.122 104.364 14ZM96.6199 14C96.6199 19.5332 98.8754 28 113.31 28C127.745 28 130 19.5332 130 14C130 8.46684 127.745 0 113.31 0C98.8754 0 96.6199 8.46684 96.6199 14Z" fill="#C8C8C8"/>
<path d="M104.364 14C104.364 9.87798 106.694 5.0504 113.31 5.0504C119.926 5.0504 122.256 9.87798 122.256 14C122.256 18.122 119.926 22.9496 113.31 22.9496C106.694 22.9496 104.364 18.122 104.364 14ZM96.6199 14C96.6199 19.5332 98.8754 28 113.31 28C127.745 28 130 19.5332 130 14C130 8.46684 127.745 0 113.31 0C98.8754 0 96.6199 8.46684 96.6199 14Z" fill="url(#paint3_radial_21_92)"/>
<path d="M104.364 14C104.364 9.87798 106.694 5.0504 113.31 5.0504C119.926 5.0504 122.256 9.87798 122.256 14C122.256 18.122 119.926 22.9496 113.31 22.9496C106.694 22.9496 104.364 18.122 104.364 14ZM96.6199 14C96.6199 19.5332 98.8754 28 113.31 28C127.745 28 130 19.5332 130 14C130 8.46684 127.745 0 113.31 0C98.8754 0 96.6199 8.46684 96.6199 14Z" fill="white" fill-opacity="0.2"/>
<defs>
<radialGradient id="paint0_radial_21_92" cx="0" cy="0" r="1" gradientUnits="userSpaceOnUse" gradientTransform="translate(111.583 28) rotate(180) scale(100.716 28)">
<stop stop-color="#FDAB01"/>
<stop offset="1" stop-color="#FDAB01" stop-opacity="0"/>
</radialGradient>
<radialGradient id="paint1_radial_21_92" cx="0" cy="0" r="1" gradientUnits="userSpaceOnUse" gradientTransform="translate(111.583 28) rotate(180) scale(100.716 28)">
<stop stop-color="#FDAB01"/>
<stop offset="1" stop-color="#FDAB01" stop-opacity="0"/>
</radialGradient>
<radialGradient id="paint2_radial_21_92" cx="0" cy="0" r="1" gradientUnits="userSpaceOnUse" gradientTransform="translate(111.583 28) rotate(180) scale(100.716 28)">
<stop stop-color="#FDAB01"/>
<stop offset="1" stop-color="#FDAB01" stop-opacity="0"/>
</radialGradient>
<radialGradient id="paint3_radial_21_92" cx="0" cy="0" r="1" gradientUnits="userSpaceOnUse" gradientTransform="translate(111.583 28) rotate(180) scale(100.716 28)">
<stop stop-color="#FDAB01"/>
<stop offset="1" stop-color="#FDAB01" stop-opacity="0"/>
</radialGradient>
</defs>
</svg>
